HIERARCHY
ROOT Hips
{
 OFFSET 0.000000 0.000000 0.000000
 CHANNELS 6 Xposition Yposition Zposition Yrotation Xrotation Zrotation
 JOINT Chest
 {
  OFFSET 0.000000 9.585900 0.002600
  CHANNELS 3 Yrotation Xrotation Zrotation
  JOINT Chest2
  {
   OFFSET 0.000000 9.601200 -0.005300
   CHANNELS 3 Yrotation Xrotation Zrotation
   JOINT Chest3
   {
    OFFSET 0.000000 9.561800 0.000000
    CHANNELS 3 Yrotation Xrotation Zrotation
    JOINT Chest4
    {
     OFFSET 0.000000 9.552100 0.000000
     CHANNELS 3 Yrotation Xrotation Zrotation
     JOINT Neck
     {
      OFFSET 0.000000 14.453000 0.000000
      CHANNELS 3 Yrotation Xrotation Zrotation
      JOINT Head
      {
       OFFSET 0.000000 8.936500 -0.011300
       CHANNELS 3 Yrotation Xrotation Zrotation
       End Site
       {
        OFFSET 0.000000 17.073600 -0.006000
       }
      }
     }
     JOINT RightCollar
     {
      OFFSET -2.921100 9.558500 0.000000
      CHANNELS 3 Yrotation Xrotation Zrotation
      JOINT RightShoulder
      {
       OFFSET -13.519700 0.000000 0.000000
       CHANNELS 3 Yrotation Xrotation Zrotation
       JOINT RightElbow
       {
        OFFSET 0.000000 -29.696600 0.000000
        CHANNELS 3 Yrotation Xrotation Zrotation
        JOINT RightWrist
        {
         OFFSET 0.000000 -24.004700 0.000000
         CHANNELS 3 Yrotation Xrotation Zrotation
         End Site
         {
          OFFSET 0.000000 -17.728500 0.000000
         }
        }
       }
      }
     }
     JOINT LeftCollar
     {
      OFFSET 2.921100 9.558500 0.000000
      CHANNELS 3 Yrotation Xrotation Zrotation
      JOINT LeftShoulder
      {
       OFFSET 13.519700 0.000000 0.000000
       CHANNELS 3 Yrotation Xrotation Zrotation
       JOINT LeftElbow
       {
        OFFSET 0.000000 -29.696600 0.000000
        CHANNELS 3 Yrotation Xrotation Zrotation
        JOINT LeftWrist
        {
         OFFSET 0.000000 -24.004700 0.000000
         CHANNELS 3 Yrotation Xrotation Zrotation
         End Site
         {
          OFFSET 0.000000 -17.728500 0.000000
         }
        }
       }
      }
     }
    }
   }
  }
 }
 JOINT RightHip
 {
  OFFSET -7.771700 -0.012900 -0.001300
  CHANNELS 3 Yrotation Xrotation Zrotation
  JOINT RightKnee
  {
   OFFSET 0.000000 -40.869800 0.001200
   CHANNELS 3 Yrotation Xrotation Zrotation
   JOINT RightAnkle
   {
    OFFSET 0.000000 -39.717900 0.002100
    CHANNELS 3 Yrotation Xrotation Zrotation
    JOINT RightToe
    {
     OFFSET 0.000000 -4.965400 11.033500
     CHANNELS 3 Yrotation Xrotation Zrotation
     End Site
     {
      OFFSET 0.000000 -1.423100 5.872300
     }
    }
   }
  }
 }
 JOINT LeftHip
 {
  OFFSET 7.771700 -0.012900 -0.001300
  CHANNELS 3 Yrotation Xrotation Zrotation
  JOINT LeftKnee
  {
   OFFSET 0.000000 -40.869800 0.001200
   CHANNELS 3 Yrotation Xrotation Zrotation
   JOINT LeftAnkle
   {
    OFFSET 0.000000 -39.717900 0.002100
    CHANNELS 3 Yrotation Xrotation Zrotation
    JOINT LeftToe
    {
     OFFSET 0.000000 -4.965400 11.033500
     CHANNELS 3 Yrotation Xrotation Zrotation
     End Site
     {
      OFFSET 0.000000 -1.423100 5.872300
     }
    }
   }
  }
 }
}
MOTION
Frames: 14
Frame Time: 0.008333
-234.505009 57.712796 22.594474 173.920401 -51.637263 -3.302023 4.589868 23.053562 3.946690 2.369067 13.209302 1.982012 3.055988 16.497312 2.583180 2.364557 13.213531 1.964337 1.729452 17.632497 3.033145 2.176185 -3.059200 5.013600 0.781761 4.692445 0.750770 -6.219243 -14.126590 -9.534915 -93.209795 -62.217198 136.309051 9.759805 3.001476 -19.706169 -9.022518 1.767651 0.589801 8.584200 -6.513205 8.672639 85.544405 -63.783776 -122.191778 -7.770766 -10.991203 4.403052 7.571776 -20.213563 0.139678 -42.944275 71.227021 -46.141755 4.242037 -11.964036 13.632068 -0.000350 0.095319 0.060532 -10.151739 -17.668784 9.186575 55.618927 81.354754 57.536463 0.489738 -18.105679 -22.962992 -0.002654 0.001546 -0.003195
-234.496419 57.716749 22.593794 173.915343 -51.642112 -3.311003 4.595767 23.055733 3.947875 2.371802 13.210981 1.980303 3.056470 16.500036 2.563829 2.375712 13.210319 1.987245 1.721439 17.628149 3.043854 2.157701 -3.066920 5.036047 0.766085 4.678088 0.717966 -6.232496 -14.123689 -9.499272 -93.178184 -62.225457 136.283098 9.779666 3.025656 -19.682614 -9.062027 1.730805 0.544788 8.438891 -6.591149 8.750553 84.967269 -63.553434 -121.855371 -7.577997 -10.833831 4.169996 7.551009 -20.207629 0.174997 -42.903356 71.238680 -46.118335 4.230055 -12.008685 13.605764 0.001396 0.103548 0.064984 -10.139014 -17.659406 9.210240 55.563613 81.365973 57.487972 0.491693 -18.106291 -22.960240 -0.002820 0.000122 -0.003339
-234.488120 57.720288 22.593220 173.916599 -51.643558 -3.320056 4.598945 23.054809 3.946787 2.371044 13.210433 1.963858 3.064715 16.500908 2.573596 2.379058 13.210003 1.994732 1.713276 17.624141 3.054644 2.138947 -3.074010 5.058718 0.760777 4.668359 0.695772 -6.266816 -14.136754 -9.466113 -93.135892 -62.273731 136.225217 9.768257 3.041208 -19.618164 -9.102331 1.693900 0.495989 8.305802 -6.664862 8.832214 84.328819 -63.274806 -121.505244 -7.380763 -10.671254 3.912361 7.522672 -20.202811 0.204298 -42.805108 71.264784 -46.036781 4.201619 -12.058020 13.569205 0.019270 0.090405 0.059268 -10.139293 -17.655100 9.223045 55.588933 81.362987 57.510610 0.492796 -18.106733 -22.957356 -0.011485 0.002595 -0.005464
-234.479649 57.723516 22.592778 173.902618 -51.642984 -3.315995 4.605711 23.052136 3.942401 2.377408 13.209348 1.963732 3.067046 16.501249 2.565392 2.381499 13.214183 1.994591 1.693444 17.615548 3.075886 2.036462 -3.103988 5.146723 0.762489 4.660753 0.701685 -6.272044 -14.135049 -9.453158 -93.136568 -62.309392 136.205857 9.757919 3.044408 -19.584717 -9.120845 1.673898 0.485358 8.162575 -6.751553 8.882337 83.652907 -62.957456 -121.152261 -7.184996 -10.507722 3.637373 7.508032 -20.199795 0.227758 -42.736711 71.281240 -45.976001 4.177725 -12.128974 13.519032 0.011536 0.122161 0.075801 -10.129863 -17.653310 9.234044 55.577294 81.362464 57.501190 0.493305 -18.102013 -22.955929 -0.014443 0.000576 -0.008034
-234.471793 57.727235 22.591688 173.900526 -51.645717 -3.316293 4.608993 23.049862 3.935236 2.378852 13.212604 1.970539 3.066509 16.501953 2.550089 2.384537 13.211396 1.989612 1.672218 17.609410 3.098688 1.966567 -3.117697 5.209761 0.764437 4.658464 0.711501 -6.290470 -14.145954 -9.440944 -93.092463 -62.326771 136.166459 9.760569 3.060368 -19.562519 -9.139336 1.659576 0.479131 8.023086 -6.836070 8.929967 82.965842 -62.621166 -120.809961 -6.987096 -10.348616 3.353733 7.501471 -20.195553 0.236089 -42.702353 71.301174 -45.937315 4.162118 -12.179863 13.483423 0.012141 0.121282 0.075945 -10.122974 -17.648852 9.241399 55.543114 81.364651 57.471491 0.495802 -18.095093 -22.954735 -0.018245 -0.002558 -0.010292
-234.463894 57.730860 22.590526 173.905278 -51.647321 -3.322845 4.609667 23.051070 3.926982 2.381364 13.210549 1.970340 3.063371 16.504815 2.545591 2.390615 13.209734 1.982076 1.611344 17.599950 3.121756 1.951142 -3.121729 5.247330 0.756950 4.636899 0.692680 -6.293613 -14.138771 -9.404929 -93.051928 -62.328644 136.125943 9.805641 3.197156 -19.476607 -9.210837 1.602487 0.409336 7.929460 -6.886457 9.045401 82.293731 -62.281099 -120.494782 -6.788555 -10.196770 3.070809 7.464324 -20.188135 0.261422 -42.670899 71.303950 -45.926624 4.149589 -12.218561 13.455831 0.015305 0.121355 0.075621 -10.118333 -17.648453 9.254014 55.511333 81.370305 57.444713 0.489911 -18.090361 -22.951925 -0.018643 -0.006154 -0.010578
-234.454724 57.734587 22.589345 173.922613 -51.648891 -3.349001 4.604593 23.052962 3.939314 2.380696 13.212901 1.961107 3.058268 16.502941 2.536653 2.395541 13.211466 1.978718 1.584303 17.592304 3.141955 1.925365 -3.126935 5.278277 0.764885 4.624085 0.690105 -6.298983 -14.142960 -9.389068 -93.004509 -62.349877 136.071294 9.819564 3.287415 -19.377402 -9.247569 1.561445 0.368792 7.804318 -6.947592 9.125811 81.658113 -61.940848 -120.211862 -6.614320 -10.056321 2.803957 7.376068 -20.175557 0.305528 -42.666909 71.288787 -45.958473 4.134512 -12.257642 13.408994 0.048574 0.139412 0.093062 -10.130365 -17.643484 9.270570 55.487836 81.376746 57.427263 0.512401 -18.083749 -22.956283 -0.038046 -0.006709 -0.016377
-234.448110 57.737966 22.587827 173.925921 -51.648991 -3.352111 4.599163 23.054658 3.928712 2.379210 13.212410 1.956131 3.058304 16.502978 2.528951 2.379520 13.211871 1.952389 1.584281 17.586529 3.180987 1.943766 -3.124433 5.281367 0.796501 4.617346 0.708944 -6.300381 -14.157946 -9.382476 -92.894008 -62.372388 135.976460 9.838972 3.344299 -19.289390 -9.251481 1.535209 0.364398 7.662833 -7.014310 9.187731 81.085801 -61.611728 -119.959045 -6.482066 -9.927639 2.556819 7.347168 -20.171399 0.316613 -42.692996 71.279702 -45.991674 4.146786 -12.291042 13.379497 0.044092 0.150099 0.099727 -10.129310 -17.642429 9.275755 55.497778 81.383948 57.435879 0.519307 -18.087233 -22.956492 -0.042821 -0.006386 -0.017501
-234.441409 57.740567 22.586799 173.926893 -51.643520 -3.358354 4.595576 23.051896 3.908107 2.380096 13.211599 1.950115 3.065833 16.500197 2.542176 2.374739 13.211506 1.944269 1.563963 17.582112 3.198612 1.835957 -3.142869 5.361616 0.812600 4.612419 0.709826 -6.285886 -14.190964 -9.403096 -92.776576 -62.355331 135.866282 9.863885 3.428627 -19.181780 -9.251612 1.522369 0.361371 7.501557 -7.095796 9.227974 80.612543 -61.314160 -119.758735 -6.372531 -9.799830 2.321198 7.335969 -20.176020 0.325871 -42.726237 71.273129 -46.019282 4.162882 -12.321248 13.349911 0.032077 0.144184 0.100377 -10.133137 -17.645903 9.286704 55.505311 81.389555 57.444180 0.525683 -18.089993 -22.961646 -0.046947 -0.006722 -0.017577
-234.436047 57.743479 22.585141 173.927885 -51.641416 -3.360682 4.593325 23.052700 3.896836 2.376116 13.211097 1.941593 3.075864 16.497117 2.556011 2.370201 13.211370 1.938099 1.533511 17.578482 3.206022 1.772049 -3.153349 5.411225 0.821458 4.609695 0.709820 -6.270969 -14.201152 -9.415161 -92.706396 -62.353547 135.817303 9.893485 3.515700 -19.061370 -9.260324 1.509123 0.347077 7.334688 -7.177494 9.273394 80.246683 -61.055203 -119.629820 -6.274554 -9.669952 2.094783 7.309689 -20.175894 0.335737 -42.713016 71.270242 -46.023678 4.177002 -12.336122 13.339462 0.033675 0.101437 0.073130 -10.132367 -17.643276 9.295343 55.451099 81.394233 57.387340 0.527890 -18.093074 -22.959896 -0.046385 -0.004292 -0.017433
-234.430916 57.745993 22.583676 173.938055 -51.636493 -3.373341 4.587806 23.051655 3.890221 2.376083 13.209561 1.941536 3.070736 16.494815 2.546894 2.377027 13.210236 1.944637 1.504548 17.576108 3.213271 1.729838 -3.162997 5.446577 0.830266 4.606450 0.709531 -6.259238 -14.204379 -9.422428 -92.641296 -62.357123 135.784045 9.928914 3.600916 -18.926444 -9.286583 1.483920 0.314273 7.176674 -7.244305 9.341274 79.963851 -60.834044 -119.555100 -6.193392 -9.549743 1.866551 7.285035 -20.179709 0.346553 -42.722305 71.271688 -46.035813 4.180065 -12.353175 13.321211 0.035904 0.087732 0.064891 -10.133588 -17.647632 9.299295 55.440872 81.396101 57.388350 0.533956 -18.091294 -22.962372 -0.047718 -0.006301 -0.020690
-234.427271 57.747067 22.583001 173.946471 -51.621850 -3.380412 4.579793 23.045044 3.880303 2.378963 13.202779 1.946341 3.062825 16.497503 2.531207 2.365774 13.214008 1.928546 1.508853 17.566845 3.240507 1.678681 -3.176441 5.481781 0.858355 4.591545 0.722824 -6.259031 -14.197944 -9.414543 -92.609310 -62.361440 135.771401 9.970650 3.695697 -18.750848 -9.296857 1.456103 0.306164 7.020794 -7.306161 9.403103 79.737677 -60.650624 -119.511195 -6.130996 -9.445188 1.621500 7.266239 -20.191723 0.350481 -42.687365 71.286031 -46.004750 4.163040 -12.378855 13.299064 0.036485 0.095521 0.070245 -10.138607 -17.662491 9.301293 55.440637 81.396307 57.391725 0.537034 -18.089065 -22.960532 -0.049234 -0.007506 -0.024615
-234.423954 57.747843 22.582411 173.939461 -51.606515 -3.377324 4.580083 23.039827 3.869672 2.381982 13.200180 1.946067 3.060558 16.496233 2.525898 2.363767 13.212932 1.925900 1.516637 17.560298 3.253008 1.648358 -3.184067 5.499922 0.870279 4.570469 0.710431 -6.238177 -14.190446 -9.413946 -92.571306 -62.354920 135.732331 10.027441 3.785594 -18.558129 -9.330554 1.410684 0.271425 6.881199 -7.345711 9.476361 79.558947 -60.499234 -119.493941 -6.093168 -9.345215 1.354341 7.262924 -20.205939 0.355143 -42.655638 71.296701 -45.975697 4.161491 -12.416240 13.272453 0.021191 0.114992 0.081960 -10.135195 -17.678017 9.304962 55.438554 81.395311 57.395082 0.536110 -18.084722 -22.960719 -0.047961 -0.011134 -0.027367
-234.420818 57.749759 22.580784 173.939807 -51.600569 -3.381864 4.577448 23.041733 3.864053 2.374108 13.207596 1.930733 3.068348 16.486768 2.531707 2.374552 13.207695 1.933696 1.482905 17.557427 3.256388 1.586919 -3.198314 5.532497 0.874420 4.562360 0.701616 -6.176200 -14.196495 -9.456007 -92.517157 -62.342191 135.667483 10.099233 3.854062 -18.382230 -9.342802 1.395878 0.258940 6.726446 -7.402422 9.511770 79.422537 -60.376352 -119.504521 -6.082982 -9.230380 1.068982 7.257644 -20.210094 0.364676 -42.629206 71.308869 -45.949829 4.146525 -12.433156 13.262873 0.036117 0.083133 0.061687 -10.135246 -17.683069 9.308124 55.444920 81.400501 57.404839 0.543925 -18.086723 -22.960274 -0.052266 -0.011367 -0.028509
